# xmcd
#
# Track frame offsets: 
#        183
#        14755
#        33158
#        72060
#        92933
#        120828
#        139078
#        166635
#        183840
#        210235
#
# Disc length: 3225 seconds
#
# Revision: 0
# Processed by: cddbd v1.5.2PL0 Copyright (c) Steve Scherf et al.
# Submitted via: ExactAudioCopy v0.99pb4
#
DISCID=750c970a
DTITLE=黃安源指揮中國廣播民族樂團 - 大陸國樂名家名曲
DYEAR=1989
DGENRE=Classical
TTITLE0=山村的節日
TTITLE1=胡騰舞曲
TTITLE2=憶故人
TTITLE3=二黃慢版及變奏
TTITLE4=傜\族舞曲
TTITLE5=喜訊到邊寨
TTITLE6=龍翔操
TTITLE7=水鄉綠野
TTITLE8=晚來香
TTITLE9=豐年祭
EXTD=
EXTT0=
EXTT1=
EXTT2=
EXTT3=
EXTT4=
EXTT5=
EXTT6=
EXTT7=
EXTT8=
EXTT9=
PLAYORDER=
